<svg width="110" height="136" viewBox="0 0 110 136" fill="none" xmlns="http://www.w3.org/2000/svg">
<ellipse cx="55" cy="56" rx="55" ry="56" fill="#292929"/>
<g filter="url(#filter0_d_1_5)">
<path d="M49.752 78.864C46.552 78.864 43.96 78.16 41.976 76.752C40.056 75.28 39.096 73.456 39.096 71.28C39.096 68.848 40.088 66.864 42.072 65.328C44.12 63.792 46.648 62.864 49.656 62.544L49.944 63.216C49.112 63.92 48.44 64.976 47.928 66.384C47.416 67.728 47.16 69.2 47.16 70.8C47.16 72.4 47.48 73.744 48.12 74.832C48.76 75.856 49.72 76.368 51 76.368C52.536 76.368 53.688 75.568 54.456 73.968C55.224 72.368 55.608 70.128 55.608 67.248V42.096C55.608 40.368 55.448 39.088 55.128 38.256C54.872 37.424 54.392 36.784 53.688 36.336C52.984 35.888 51.832 35.408 50.232 34.896L50.904 33.168H67.608L68.376 34.224L67.608 35.28C66.584 36.688 65.848 38.16 65.4 39.696C65.016 41.232 64.824 43.248 64.824 45.744V61.392C64.824 73.04 59.8 78.864 49.752 78.864Z" fill="url(#paint0_linear_1_5)" shape-rendering="crispEdges"/>
</g>
<defs>
<filter id="filter0_d_1_5" x="35.096" y="33.168" width="37.28" height="53.696" filterUnits="userSpaceOnUse" color-interpolation-filters="sRGB">
<feFlood flood-opacity="0" result="BackgroundImageFix"/>
<feColorMatrix in="SourceAlpha" type="matrix" values="0 0 0 0 0 0 0 0 0 0 0 0 0 0 0 0 0 0 127 0" result="hardAlpha"/>
<feOffset dy="4"/>
<feGaussianBlur stdDeviation="2"/>
<feComposite in2="hardAlpha" operator="out"/>
<feColorMatrix type="matrix" values="0 0 0 0 0 0 0 0 0 0 0 0 0 0 0 0 0 0 0.25 0"/>
<feBlend mode="normal" in2="BackgroundImageFix" result="effect1_dropShadow_1_5"/>
<feBlend mode="normal" in="SourceGraphic" in2="effect1_dropShadow_1_5" result="shape"/>
</filter>
<linearGradient id="paint0_linear_1_5" x1="55" y1="21" x2="55" y2="136" gradientUnits="userSpaceOnUse">
<stop stop-color="#4EB4CA" stop-opacity="0.88"/>
<stop offset="1" stop-color="white" stop-opacity="0"/>
</linearGradient>
</defs>
</svg>
